<svg width="27" height="27" viewBox="0 0 27 27" fill="none" xmlns="http://www.w3.org/2000/svg">
<path opacity="0.2" d="M5.0625 4.21875C4.83872 4.21875 4.62411 4.30765 4.46588 4.46588C4.30765 4.62411 4.21875 4.83872 4.21875 5.0625V21.9375C4.21875 22.1613 4.30765 22.3759 4.46588 22.5341C4.62411 22.6924 4.83872 22.7812 5.0625 22.7812H19.4062V4.21875H5.0625ZM11.8125 15.1875C11.3119 15.1875 10.8225 15.039 10.4062 14.7609C9.98995 14.4828 9.66551 14.0874 9.47393 13.6249C9.28235 13.1624 9.23222 12.6534 9.32989 12.1624C9.42756 11.6714 9.66863 11.2204 10.0226 10.8664C10.3766 10.5124 10.8277 10.2713 11.3187 10.1736C11.8097 10.076 12.3186 10.1261 12.7812 10.3177C13.2437 10.5093 13.639 10.8337 13.9172 11.25C14.1953 11.6662 14.3438 12.1556 14.3438 12.6562C14.3438 13.3276 14.0771 13.9714 13.6024 14.4461C13.1277 14.9208 12.4838 15.1875 11.8125 15.1875Z" fill="#008236"/>
<path d="M21.9375 3.375H5.0625C4.61495 3.375 4.18572 3.55279 3.86926 3.86926C3.55279 4.18572 3.375 4.61495 3.375 5.0625V21.9375C3.375 22.3851 3.55279 22.8143 3.86926 23.1307C4.18572 23.4472 4.61495 23.625 5.0625 23.625H21.9375C22.3851 23.625 22.8143 23.4472 23.1307 23.1307C23.4472 22.8143 23.625 22.3851 23.625 21.9375V5.0625C23.625 4.61495 23.4472 4.18572 23.1307 3.86926C22.8143 3.55279 22.3851 3.375 21.9375 3.375ZM20.25 10.9688H21.9375V16.0312H20.25V10.9688ZM21.9375 9.28125H20.25V5.0625H21.9375V9.28125ZM5.0625 5.0625H18.5625V21.9375H5.0625V5.0625ZM21.9375 21.9375H20.25V17.7188H21.9375V21.9375ZM16.0049 17.5078C15.7318 16.4884 15.0844 15.6093 14.1919 15.0462C14.6659 14.575 14.9893 13.9736 15.1212 13.3184C15.253 12.6632 15.1874 11.9836 14.9325 11.3657C14.6777 10.7478 14.2451 10.2195 13.6896 9.84778C13.1342 9.47604 12.4809 9.2776 11.8125 9.2776C11.1441 9.2776 10.4908 9.47604 9.93536 9.84778C9.37991 10.2195 8.94734 10.7478 8.69249 11.3657C8.43763 11.9836 8.37197 12.6632 8.50383 13.3184C8.63568 13.9736 8.95911 14.575 9.43313 15.0462C8.54113 15.61 7.89391 16.4887 7.62012 17.5078C7.56417 17.7246 7.59664 17.9547 7.71037 18.1476C7.8241 18.3404 8.00978 18.4802 8.22656 18.5361C8.44335 18.5921 8.67347 18.5596 8.86632 18.4459C9.05917 18.3322 9.19894 18.1465 9.25488 17.9297C9.53332 16.8486 10.6323 16.0312 11.8125 16.0312C12.9927 16.0312 14.0927 16.8465 14.3701 17.9297C14.4261 18.1465 14.5658 18.3322 14.7587 18.4459C14.9515 18.5596 15.1817 18.5921 15.3984 18.5361C15.6152 18.4802 15.8009 18.3404 15.9146 18.1476C16.0284 17.9547 16.0608 17.7246 16.0049 17.5078ZM10.125 12.6562C10.125 12.3225 10.224 11.9962 10.4094 11.7187C10.5948 11.4412 10.8584 11.2249 11.1667 11.0972C11.4751 10.9695 11.8144 10.9361 12.1417 11.0012C12.4691 11.0663 12.7697 11.227 13.0057 11.463C13.2417 11.699 13.4025 11.9997 13.4676 12.327C13.5327 12.6544 13.4993 12.9937 13.3715 13.302C13.2438 13.6104 13.0275 13.8739 12.75 14.0594C12.4725 14.2448 12.1463 14.3438 11.8125 14.3438C11.3649 14.3438 10.9357 14.166 10.6193 13.8495C10.3028 13.533 10.125 13.1038 10.125 12.6562Z" fill="#008236"/>
</svg>
