<svg width="27" height="27" viewBox="0 0 27 27" fill="none" xmlns="http://www.w3.org/2000/svg">
<path opacity="0.2" d="M24.4688 10.125H2.53125L13.5 3.375L24.4688 10.125Z" fill="#8300E6"/>
<path d="M2.53125 10.9682H5.0625V17.7182H3.375C3.15122 17.7182 2.93661 17.8071 2.77838 17.9654C2.62014 18.1236 2.53125 18.3382 2.53125 18.562C2.53125 18.7858 2.62014 19.0004 2.77838 19.1586C2.93661 19.3168 3.15122 19.4057 3.375 19.4057H23.625C23.8488 19.4057 24.0634 19.3168 24.2216 19.1586C24.3799 19.0004 24.4688 18.7858 24.4688 18.562C24.4688 18.3382 24.3799 18.1236 24.2216 17.9654C24.0634 17.8071 23.8488 17.7182 23.625 17.7182H21.9375V10.9682H24.4688C24.6523 10.968 24.8308 10.908 24.9772 10.7972C25.1236 10.6864 25.2298 10.5308 25.2798 10.3542C25.3298 10.1775 25.3208 9.98939 25.2541 9.81832C25.1875 9.64725 25.0669 9.50257 24.9107 9.40623L13.9419 2.65623C13.809 2.57451 13.656 2.53125 13.5 2.53125C13.344 2.53125 13.191 2.57451 13.0581 2.65623L2.08934 9.40623C1.93306 9.50257 1.81247 9.64725 1.74586 9.81832C1.67924 9.98939 1.67024 10.1775 1.72022 10.3542C1.7702 10.5308 1.87642 10.6864 2.02279 10.7972C2.16915 10.908 2.34767 10.968 2.53125 10.9682ZM6.75 10.9682H10.125V17.7182H6.75V10.9682ZM15.1875 10.9682V17.7182H11.8125V10.9682H15.1875ZM20.25 17.7182H16.875V10.9682H20.25V17.7182ZM13.5 4.36483L21.4882 9.28073H5.5118L13.5 4.36483ZM26.1562 21.937C26.1562 22.1608 26.0674 22.3754 25.9091 22.5336C25.7509 22.6918 25.5363 22.7807 25.3125 22.7807H1.6875C1.46372 22.7807 1.24911 22.6918 1.09088 22.5336C0.932645 22.3754 0.84375 22.1608 0.84375 21.937C0.84375 21.7132 0.932645 21.4986 1.09088 21.3404C1.24911 21.1821 1.46372 21.0932 1.6875 21.0932H25.3125C25.5363 21.0932 25.7509 21.1821 25.9091 21.3404C26.0674 21.4986 26.1562 21.7132 26.1562 21.937Z" fill="#8300E6"/>
</svg>
