<svg width="27" height="27" viewBox="0 0 27 27" fill="none" xmlns="http://www.w3.org/2000/svg">
<path opacity="0.2" d="M21.9375 4.21875V21.9375H16.0312V4.21875H21.9375Z" fill="#0096B8"/>
<path d="M23.625 21.0938H22.7812V4.21875C22.7812 3.99497 22.6924 3.78036 22.5341 3.62213C22.3759 3.4639 22.1613 3.375 21.9375 3.375H16.0312C15.8075 3.375 15.5929 3.4639 15.4346 3.62213C15.2764 3.78036 15.1875 3.99497 15.1875 4.21875V8.4375H10.125C9.90122 8.4375 9.68661 8.52639 9.52838 8.68463C9.37014 8.84286 9.28125 9.05747 9.28125 9.28125V13.5H5.0625C4.83872 13.5 4.62411 13.5889 4.46588 13.7471C4.30764 13.9054 4.21875 14.12 4.21875 14.3438V21.0938H3.375C3.15122 21.0938 2.93661 21.1826 2.77838 21.3409C2.62014 21.4991 2.53125 21.7137 2.53125 21.9375C2.53125 22.1613 2.62014 22.3759 2.77838 22.5341C2.93661 22.6924 3.15122 22.7812 3.375 22.7812H23.625C23.8488 22.7812 24.0634 22.6924 24.2216 22.5341C24.3799 22.3759 24.4688 22.1613 24.4688 21.9375C24.4688 21.7137 24.3799 21.4991 24.2216 21.3409C24.0634 21.1826 23.8488 21.0938 23.625 21.0938ZM16.875 5.0625H21.0938V21.0938H16.875V5.0625ZM10.9688 10.125H15.1875V21.0938H10.9688V10.125ZM5.90625 15.1875H9.28125V21.0938H5.90625V15.1875Z" fill="#0096B8"/>
</svg>
