<svg width="22" height="21" viewBox="0 0 22 21" fill="none" xmlns="http://www.w3.org/2000/svg">
<path d="M21.9048 6.51902L20.3924 1.22344C20.2907 0.872136 20.078 0.563164 19.7862 0.342661C19.4945 0.122158 19.1392 0.00195427 18.7734 0H3.16406C2.79833 0.00195427 2.44305 0.122158 2.15126 0.342661C1.85948 0.563164 1.64684 0.872136 1.54512 1.22344L0.0326953 6.51902C0.0110739 6.59411 6.87506e-05 6.67186 0 6.75V8.4375C0 9.09244 0.152487 9.73839 0.445385 10.3242C0.738283 10.91 1.16355 11.4195 1.6875 11.8125V19.4062C1.6875 19.63 1.77639 19.8446 1.93463 20.0029C2.09286 20.1611 2.30747 20.25 2.53125 20.25H19.4062C19.63 20.25 19.8446 20.1611 20.0029 20.0029C20.1611 19.8446 20.25 19.63 20.25 19.4062V11.8125C20.774 11.4195 21.1992 10.91 21.4921 10.3242C21.785 9.73839 21.9375 9.09244 21.9375 8.4375V6.75C21.9374 6.67186 21.9264 6.59411 21.9048 6.51902ZM3.16406 1.6875H18.7734L19.9779 5.90625H1.96277L3.16406 1.6875ZM13.5 7.59375V8.4375C13.5 9.10883 13.2333 9.75266 12.7586 10.2274C12.2839 10.7021 11.6401 10.9688 10.9688 10.9688C10.2974 10.9688 9.65359 10.7021 9.17889 10.2274C8.70418 9.75266 8.4375 9.10883 8.4375 8.4375V7.59375H13.5ZM2.85398 10.568C2.49652 10.3391 2.20235 10.0241 1.99851 9.65179C1.79468 9.2795 1.68773 8.86194 1.6875 8.4375V7.59375H6.75V8.4375C6.74985 8.87278 6.63745 9.30066 6.42367 9.67982C6.20989 10.059 5.90194 10.3766 5.52958 10.602C5.15722 10.8274 4.73302 10.953 4.29796 10.9666C3.8629 10.9802 3.43167 10.8814 3.04594 10.6798C2.98724 10.6341 2.92268 10.5965 2.85398 10.568ZM18.5625 18.5625H3.375V12.5719C3.65276 12.6279 3.9354 12.6561 4.21875 12.6562C4.87369 12.6562 5.51964 12.5038 6.10543 12.2109C6.69123 11.918 7.20079 11.4927 7.59375 10.9688C7.98671 11.4927 8.49627 11.918 9.08207 12.2109C9.66786 12.5038 10.3138 12.6562 10.9688 12.6562C11.6237 12.6562 12.2696 12.5038 12.8554 12.2109C13.4412 11.918 13.9508 11.4927 14.3438 10.9688C14.7367 11.4927 15.2463 11.918 15.8321 12.2109C16.4179 12.5038 17.0638 12.6562 17.7188 12.6562C18.0021 12.6561 18.2847 12.6279 18.5625 12.5719V18.5625ZM20.25 8.4375C20.2497 8.86203 20.1426 9.27966 19.9385 9.65196C19.7345 10.0243 19.4401 10.3393 19.0825 10.568C19.0147 10.5965 18.9509 10.6338 18.8926 10.6787C18.5069 10.8806 18.0757 10.9796 17.6406 10.9662C17.2054 10.9527 16.7811 10.8273 16.4086 10.6019C16.0362 10.3766 15.7281 10.0591 15.5142 9.6799C15.3002 9.30075 15.1877 8.87283 15.1875 8.4375V7.59375H20.25V8.4375Z" fill="#0047CC"/>
</svg>
