<svg width="16" height="24" viewBox="0 0 16 24" fill="none" xmlns="http://www.w3.org/2000/svg">
<path d="M10.125 10.9688H8.4375V4.21875H9.28125C10.1764 4.21875 11.0348 4.57433 11.6677 5.20726C12.3007 5.8402 12.6562 6.69864 12.6562 7.59375C12.6562 7.81753 12.7451 8.03214 12.9034 8.19037C13.0616 8.34861 13.2762 8.4375 13.5 8.4375C13.7238 8.4375 13.9384 8.34861 14.0966 8.19037C14.2549 8.03214 14.3438 7.81753 14.3438 7.59375C14.3424 6.25152 13.8085 4.96466 12.8594 4.01556C11.9103 3.06646 10.6235 2.53265 9.28125 2.53125H8.4375V0.84375C8.4375 0.619974 8.34861 0.405362 8.19037 0.247129C8.03214 0.0888948 7.81753 0 7.59375 0C7.36997 0 7.15536 0.0888948 6.99713 0.247129C6.83889 0.405362 6.75 0.619974 6.75 0.84375V2.53125H5.90625C4.56359 2.53125 3.27592 3.06462 2.32652 4.01402C1.37712 4.96343 0.84375 6.25109 0.84375 7.59375C0.84375 8.93641 1.37712 10.2241 2.32652 11.1735C3.27592 12.1229 4.56359 12.6562 5.90625 12.6562H6.75V19.4062H5.0625C4.16739 19.4062 3.30895 19.0507 2.67601 18.4177C2.04308 17.7848 1.6875 16.9264 1.6875 16.0312C1.6875 15.8075 1.59861 15.5929 1.44037 15.4346C1.28214 15.2764 1.06753 15.1875 0.84375 15.1875C0.619974 15.1875 0.405363 15.2764 0.247129 15.4346C0.088895 15.5929 0 15.8075 0 16.0312C0.00139598 17.3735 0.535213 18.6603 1.48431 19.6094C2.43341 20.5585 3.72027 21.0924 5.0625 21.0938H6.75V22.7812C6.75 23.005 6.83889 23.2196 6.99713 23.3779C7.15536 23.5361 7.36997 23.625 7.59375 23.625C7.81753 23.625 8.03214 23.5361 8.19037 23.3779C8.34861 23.2196 8.4375 23.005 8.4375 22.7812V21.0938H10.125C11.4677 21.0938 12.7553 20.5604 13.7047 19.611C14.6541 18.6616 15.1875 17.3739 15.1875 16.0312C15.1875 14.6886 14.6541 13.4009 13.7047 12.4515C12.7553 11.5021 11.4677 10.9688 10.125 10.9688ZM5.90625 10.9688C5.01114 10.9688 4.1527 10.6132 3.51976 9.98024C2.88683 9.3473 2.53125 8.48886 2.53125 7.59375C2.53125 6.69864 2.88683 5.8402 3.51976 5.20726C4.1527 4.57433 5.01114 4.21875 5.90625 4.21875H6.75V10.9688H5.90625ZM10.125 19.4062H8.4375V12.6562H10.125C11.0201 12.6562 11.8785 13.0118 12.5115 13.6448C13.1444 14.2777 13.5 15.1361 13.5 16.0312C13.5 16.9264 13.1444 17.7848 12.5115 18.4177C11.8785 19.0507 11.0201 19.4062 10.125 19.4062Z" fill="#E66400"/>
</svg>
