<svg width="24" height="28" viewBox="0 0 24 28" fill="none" xmlns="http://www.w3.org/2000/svg">
<g clip-path="url(#clip0_2143_16816)">
<path d="M4.5 22C4.0875 22 3.73437 21.8507 3.44062 21.5521C3.14687 21.2535 3 20.9028 3 20.5V9.5C3 9.09722 3.14687 8.74653 3.44062 8.44792C3.73437 8.14931 4.0875 8 4.5 8H6V6H7.5V8H12.5V6H14V8H15.5C15.9125 8 16.2656 8.14931 16.5594 8.44792C16.8531 8.74653 17 9.09722 17 9.5V20.5C17 20.9028 16.8531 21.2535 16.5594 21.5521C16.2656 21.8507 15.9125 22 15.5 22H4.5ZM4.5 20.5H15.5V13H4.5V20.5ZM4.5 11.5H15.5V9.5H4.5V11.5ZM10.0044 16C9.79313 16 9.61458 15.9285 9.46875 15.7856C9.32292 15.6427 9.25 15.4656 9.25 15.2544C9.25 15.0431 9.32146 14.8646 9.46438 14.7188C9.60729 14.5729 9.78438 14.5 9.99563 14.5C10.2069 14.5 10.3854 14.5715 10.5312 14.7144C10.6771 14.8573 10.75 15.0344 10.75 15.2456C10.75 15.4569 10.6785 15.6354 10.5356 15.7812C10.3927 15.9271 10.2156 16 10.0044 16ZM6.75437 16C6.54312 16 6.36458 15.9285 6.21875 15.7856C6.07292 15.6427 6 15.4656 6 15.2544C6 15.0431 6.07146 14.8646 6.21438 14.7188C6.35729 14.5729 6.53438 14.5 6.74563 14.5C6.95688 14.5 7.13542 14.5715 7.28125 14.7144C7.42708 14.8573 7.5 15.0344 7.5 15.2456C7.5 15.4569 7.42854 15.6354 7.28562 15.7812C7.14271 15.9271 6.96563 16 6.75437 16ZM13.2544 16C13.0431 16 12.8646 15.9285 12.7188 15.7856C12.5729 15.6427 12.5 15.4656 12.5 15.2544C12.5 15.0431 12.5715 14.8646 12.7144 14.7188C12.8573 14.5729 13.0344 14.5 13.2456 14.5C13.4569 14.5 13.6354 14.5715 13.7812 14.7144C13.9271 14.8573 14 15.0344 14 15.2456C14 15.4569 13.9285 15.6354 13.7856 15.7812C13.6427 15.9271 13.4656 16 13.2544 16ZM10.0044 19C9.79313 19 9.61458 18.9285 9.46875 18.7856C9.32292 18.6427 9.25 18.4656 9.25 18.2544C9.25 18.0431 9.32146 17.8646 9.46438 17.7188C9.60729 17.5729 9.78438 17.5 9.99563 17.5C10.2069 17.5 10.3854 17.5715 10.5312 17.7144C10.6771 17.8573 10.75 18.0344 10.75 18.2456C10.75 18.4569 10.6785 18.6354 10.5356 18.7812C10.3927 18.9271 10.2156 19 10.0044 19ZM6.75437 19C6.54312 19 6.36458 18.9285 6.21875 18.7856C6.07292 18.6427 6 18.4656 6 18.2544C6 18.0431 6.07146 17.8646 6.21438 17.7188C6.35729 17.5729 6.53438 17.5 6.74563 17.5C6.95688 17.5 7.13542 17.5715 7.28125 17.7144C7.42708 17.8573 7.5 18.0344 7.5 18.2456C7.5 18.4569 7.42854 18.6354 7.28562 18.7812C7.14271 18.9271 6.96563 19 6.75437 19ZM13.2544 19C13.0431 19 12.8646 18.9285 12.7188 18.7856C12.5729 18.6427 12.5 18.4656 12.5 18.2544C12.5 18.0431 12.5715 17.8646 12.7144 17.7188C12.8573 17.5729 13.0344 17.5 13.2456 17.5C13.4569 17.5 13.6354 17.5715 13.7812 17.7144C13.9271 17.8573 14 18.0344 14 18.2456C14 18.4569 13.9285 18.6354 13.7856 18.7812C13.6427 18.9271 13.4656 19 13.2544 19Z" fill="#008236"/>
</g>
<defs>
<clipPath id="clip0_2143_16816">
<rect width="24" height="28" fill="white"/>
</clipPath>
</defs>
</svg>
